<?xml version="1.0" standalone="no"?>
<!DOCTYPE svg PUBLIC "-//W3C//DTD SVG 20010904//EN"
 "http://www.w3.org/TR/2001/REC-SVG-20010904/DTD/svg10.dtd">
<svg version="1.0" xmlns="http://www.w3.org/2000/svg"
 width="512.000000pt" height="512.000000pt" viewBox="0 0 512.000000 512.000000"
 preserveAspectRatio="xMidYMid meet">
<metadata>
Created by potrace 1.14, written by Peter Selinger 2001-2017
</metadata>
<g transform="translate(0.000000,512.000000) scale(0.100000,-0.100000)"
fill="#000000" stroke="none">
<path d="M397 5104 c-169 -41 -299 -157 -368 -329 l-24 -60 -3 -665 -2 -665
35 40 c19 22 34 43 35 47 1 17 148 120 237 166 208 106 360 142 601 142 233 0
387 -30 547 -108 189 -92 313 -228 372 -407 24 -70 27 -96 27 -215 0 -152 -18
-240 -75 -353 -115 -228 -295 -380 -518 -438 -89 -24 -304 -29 -386 -10 -82
20 -132 55 -147 103 -11 38 -11 42 13 62 19 16 64 30 165 50 164 32 232 60
297 124 89 87 131 189 146 356 33 342 -123 510 -494 532 -113 7 -280 -13 -393
-47 -37 -11 -137 -54 -222 -94 -101 -49 -170 -75 -198 -77 l-42 -3 2 -1425 3
-1425 27 -68 c59 -146 159 -246 305 -305 l68 -27 2155 0 2155 0 68 27 c146 59
246 159 305 305 l27 68 3 715 2 715 -38 -60 c-86 -135 -223 -255 -377 -331
-142 -70 -313 -94 -418 -58 -63 21 -130 83 -164 152 -25 52 -28 66 -27 157 2
118 11 162 103 497 160 584 177 765 74 799 -84 27 -222 -74 -343 -253 -76
-113 -187 -339 -234 -475 -63 -184 -101 -421 -85 -523 15 -90 10 -188 -11
-230 -28 -54 -94 -116 -160 -148 -45 -22 -69 -27 -129 -27 -71 0 -74 1 -101
33 -39 47 -55 112 -55 217 1 114 14 175 125 580 162 593 204 846 170 1024 -22
119 -60 157 -155 155 -202 -3 -396 -252 -550 -705 -66 -194 -145 -503 -145
-566 0 -25 12 -109 27 -187 35 -189 36 -292 1 -367 -30 -67 -63 -93 -178 -145
-60 -27 -103 -39 -148 -42 -61 -4 -63 -4 -101 35 -51 51 -63 93 -68 249 -7
199 33 507 142 1099 89 483 89 477 76 561 -18 123 -52 167 -126 167 -35 0 -56
-8 -101 -39 -154 -107 -167 -114 -205 -114 -51 0 -63 23 -57 111 7 86 36 147
104 214 96 94 233 150 398 162 148 10 258 -34 323 -131 38 -55 48 -89 66 -211
l12 -89 40 68 c81 138 198 256 311 312 78 38 150 54 249 54 149 0 253 -36 329
-114 81 -84 120 -200 132 -398 l7 -107 69 74 c129 138 253 198 413 198 55 0
113 -7 147 -17 106 -30 189 -115 230 -233 21 -62 23 -84 23 -258 -1 -220 -7
-263 -109 -696 -35 -151 -67 -299 -71 -330 -8 -66 8 -134 35 -149 62 -33 145
19 366 234 84 80 159 146 168 146 15 0 16 103 14 1293 l-3 1292 -27 68 c-67
167 -198 281 -370 322 -92 22 -4231 21 -4321 -1z m300 -1824 c34 -100 4 -339
-116 -920 -37 -183 -41 -216 -59 -540 -15 -277 -22 -351 -35 -377 -34 -66
-165 -112 -314 -113 -98 0 -120 18 -135 115 -15 101 -4 393 22 545 57 338 189
777 302 1005 102 203 224 332 308 322 8 -1 20 -18 27 -37z"/>
</g>
</svg>
